<?xml version="1.0" encoding="UTF-8"?>
<svg id="Layer_2" data-name="Layer 2" xmlns="http://www.w3.org/2000/svg" viewBox="0 0 389.39 57.14">
  <defs>
    <style>
      .cls-1 {
        fill: #fff;
      }
    </style>
  </defs>
  <g id="Layer_1-2" data-name="Layer 1">
    <g>
      <g>
        <path class="cls-1" d="M9.93,29.29c-1.37-1.12-2.24-2.58-3.5-3.65-.33.18-.22.46-.22.69,0,2.06,0,4.13,0,6.19,0,3.2,0,6.4,0,9.6,0,.34.02.69.05,1.26.26-.37.43-.54.52-.74.97-2.02,1.94-4.04,2.89-6.07,1.9-4.1,3.78-8.2,5.68-12.3,2.99-6.46,5.97-12.91,8.98-19.36.47-1,1.01-1.96,1.6-2.89.34-.53.79-1.02,1.29-1.4,1.1-.86,2.42-.81,3.56.01.65.47,1.12,1.08,1.56,1.74,1,1.52,1.79,3.15,2.55,4.8,1.9,4.14,3.8,8.27,5.7,12.41.21.45.38.92.51,1.4.25.93.02,1.79-.61,2.48-1.03,1.12-2.19,2.12-3.4,3.19-.17-.29-.32-.51-.44-.75-1.62-3.52-3.23-7.05-4.84-10.58-.81-1.78-1.63-3.56-2.44-5.34-.06-.12-.15-.23-.24-.38-.39.2-.45.58-.59.89-1.36,2.94-2.72,5.88-4.08,8.81-1.52,3.29-3.04,6.59-4.57,9.88-3.5,7.55-7.01,15.1-10.53,22.64-.48,1.03-1.02,2.03-1.53,3.05-.08.16-.18.31-.28.45-1.05,1.52-2.28,2.15-4.57,1.6-1.19-.29-1.95-1.12-2.39-2.25-.4-1.01-.46-2.08-.55-3.14-.04-.42-.02-.85-.02-1.28,0-9.25,0-18.5,0-27.75,0-.92.09-1.85.2-2.76.12-.9.49-1.7,1.12-2.38,1.33-1.41,3.26-1.62,4.83-.48.52.37,1.02.78,1.48,1.23,1.23,1.19,2.42,2.41,3.64,3.6.89.87,1,1.91.74,3.05-.02.07-.04.14-.07.2-.52,1.48-1.32,2.82-2.03,4.3Z"/>
        <path class="cls-1" d="M29.27,47.93c-.24-.2-.39-.3-.51-.42-2.37-2.31-4.73-4.62-7.09-6.94-.41-.4-.77-.84-1.17-1.25-.45-.46-.63-1.01-.65-1.64-.03-.69.09-1.34.33-1.99.42-1.14,1.05-2.17,1.68-3.3.25.21.47.37.65.56,1.51,1.61,3,3.23,4.51,4.84.53.57,1.07,1.13,1.66,1.75.28-.25.53-.44.75-.66,3.79-3.7,7.58-7.41,11.37-11.11,3.28-3.21,6.54-6.44,9.83-9.64.53-.52,1.11-1.01,1.73-1.41,1.47-.93,3.13-.86,4.39.12.64.5,1.11,1.13,1.31,1.9.2.75.34,1.53.41,2.3.07.74.02,1.49.02,2.24,0,9,0,18,0,27,0,1.07.02,2.14-.22,3.19-.09.42-.18.84-.34,1.23-.61,1.49-1.73,2.27-3.35,2.4-1.93.16-3.2-.81-4.07-2.37-1.35-2.42-2.66-4.87-3.92-7.34-.84-1.64-1.61-3.33-2.36-5.02-.33-.74-.56-1.54-.77-2.32-.29-1.07-.03-2.05.68-2.89.83-.99,1.85-1.76,2.92-2.47.42.22.51.62.68.96,1.15,2.33,2.28,4.67,3.42,7,.15.32.32.63.52,1.01.28-.22.2-.48.2-.7,0-2.49,0-4.98,0-7.47,0-2.63,0-5.26,0-7.9,0-.35,0-.7,0-1.04-.44-.09-.59.21-.78.4-2.26,2.17-4.51,4.34-6.76,6.52-4.25,4.1-8.5,8.2-12.75,12.3-.74.71-1.5,1.4-2.31,2.15Z"/>
      </g>
      <g>
        <path class="cls-1" d="M355.73,3.72h2.35c-.08.18-.12.34-.21.46-1.18,1.47-2.37,2.92-3.54,4.39-.46.59-1,.71-1.76.45.4-.98,1.01-1.8,1.52-2.67.52-.88,1.08-1.74,1.63-2.63Z"/>
        <g>
          <path class="cls-1" d="M119.93,34.11c-1.5.08-2.91.04-4.38.03-.41-1.94-.52-3.81-.77-5.67-.25-1.9-.49-3.8-.71-5.71-.22-1.86-.41-3.71-.63-5.8-.14.38-.23.56-.28.74-.31,1.09-.58,2.2-.93,3.28-1.33,4.05-2.68,8.1-4.03,12.15-.1.3-.23.59-.36.92-.9.18-1.77.08-2.71.06-.4-1.19-.78-2.33-1.16-3.47-.38-1.15-.75-2.3-1.13-3.45-.39-1.18-.77-2.37-1.15-3.55-.37-1.15-.78-2.29-1.12-3.45-.34-1.14-.61-2.31-.95-3.59-.35,3.04-.67,5.92-1.01,8.81-.34,2.85-.69,5.71-1.04,8.55-.8.33-1.55.15-2.28.17-.74.02-1.48.04-2.19-.02-.1-.91,3.12-21.76,3.39-22.61.77-.2,3.87-.23,5.03-.03.91,2.53,1.72,5.14,2.55,7.74.82,2.55,1.8,5.05,2.49,7.69.06-.19.12-.37.17-.56.16-.65.27-1.33.48-1.96,1.31-3.98,2.65-7.96,3.98-11.94.11-.33.24-.66.35-.96.92-.19,4.01-.19,4.95-.02.05.11.14.24.16.37,1.11,7.2,2.21,14.4,3.3,21.6.03.17-.02.35-.04.67Z"/>
          <path class="cls-1" d="M160.22,11.4h4.59c.31.38.21.79.21,1.17,0,3.66,0,7.32,0,10.98,0,.89.02,1.78,0,2.67-.04,1.29-.25,2.54-.74,3.74-.78,1.92-2.15,3.23-4.06,3.99-1.24.5-2.54.69-3.85.79-1.89.14-3.77-.02-5.59-.58-2.84-.88-4.54-2.82-5.14-5.71-.15-.73-.24-1.48-.25-2.22-.03-4.66-.02-9.31-.02-13.97,0-.24.05-.49.07-.72.79-.25,3.55-.27,4.58-.04.19.38.12.81.12,1.23,0,3.8,0,7.61.01,11.41,0,.78.05,1.57.18,2.33.28,1.68,1.04,3.06,2.75,3.63,1.49.49,3.02.48,4.49-.12,1.04-.42,1.73-1.22,2.14-2.26.32-.8.47-1.63.47-2.5,0-1.6,0-3.2,0-4.8,0-2.59,0-5.19,0-7.78,0-.38.03-.76.05-1.24Z"/>
          <path class="cls-1" d="M180.51,23.89c-.04.37.24.63.41.93,1.64,2.71,3.28,5.41,4.91,8.12.21.35.5.68.56,1.17h-5.42c-.3-.51-.62-1.01-.91-1.53-1.46-2.6-2.92-5.21-4.38-7.81-.17-.3-.37-.57-.62-.96-.21.47-.14.82-.14,1.16,0,2.63,0,5.26,0,7.89,0,.38.08.78-.14,1.14-.76.2-3.3.23-4.5.05-.04-.17-.1-.37-.13-.57-.02-.14,0-.28,0-.43,0-6.86,0-13.72,0-20.57,0-.31.03-.63.05-.99.28-.05.52-.12.75-.12,2.31,0,4.62-.02,6.93.01,1.18.02,2.34.21,3.45.59,2.57.86,3.95,2.71,4,5.42.01.7-.02,1.43-.19,2.11-.52,2.04-1.8,3.42-3.83,4.08-.24.08-.47.15-.71.23-.03,0-.05.05-.09.09ZM174.95,20.91c1.19.32,3.5.1,4.39-.36.5-.26.83-.66,1.01-1.18.29-.84.27-1.67-.04-2.5-.2-.55-.55-1-1.1-1.24-1.34-.58-2.74-.58-4.23-.42-.13,1.93-.09,3.79-.03,5.7Z"/>
          <path class="cls-1" d="M143.47,34.02c-1.01.17-4.4.17-5.4.02-.78-1.47-1.14-3.17-1.94-4.7-.34-.02-.66-.05-.98-.05-2.24,0-4.48,0-6.73,0-1.04,0-1.04,0-1.36.96-.32.94-.62,1.89-.94,2.84-.11.33-.24.66-.39,1.05-1.7.04-3.35.02-5.02.01,0-.25-.03-.36,0-.45,2.81-7.41,5.63-14.82,8.44-22.18.85-.19,4.23-.23,5.58-.07.11.24.27.51.38.81,1.87,4.84,3.74,9.69,5.61,14.53.81,2.09,1.61,4.18,2.42,6.27.11.29.19.59.31.97ZM131.81,15.54c-.64,3.44-2.06,6.52-2.95,9.77,1,.21,5.2.19,6.02-.01.02-.62-.29-1.16-.47-1.72-.83-2.53-1.88-4.99-2.41-7.62-.02-.1-.08-.19-.18-.41Z"/>
          <path class="cls-1" d="M78.18,11.39h5.5c1.07,2.48,1.98,5.02,2.96,7.53.97,2.48,1.92,4.97,2.88,7.46.97,2.51,1.97,5.01,2.86,7.46-.06.14-.06.18-.08.2-.02.02-.06.05-.09.05-.28.02-.56.06-.84.06-1.42,0-2.84,0-4.32,0-.75-1.57-1.21-3.21-1.95-4.81-.95-.12-1.91-.05-2.86-.06-1-.01-1.99-.01-2.99,0-.95.01-1.91-.07-2.91.08-.65,1.55-1.01,3.18-1.64,4.67-1,.16-4.07.16-4.98,0-.16-.4.09-.74.22-1.09.88-2.33,1.77-4.65,2.65-6.97,1.71-4.48,3.41-8.96,5.12-13.44.14-.36.3-.72.48-1.14ZM83.85,25.3c-.08-.3-.15-.61-.25-.9-.41-1.21-.83-2.41-1.25-3.62-.53-1.5-1.08-3-1.38-4.58-.03-.18-.09-.35-.2-.73-.14.53-.21.84-.29,1.14-.27.99-.52,1.99-.83,2.96-.52,1.62-1.09,3.22-1.63,4.83-.1.29-.15.59-.23.89,1,.2,5.16.19,6.06-.01Z"/>
          <path class="cls-1" d="M198.34,34.02c-1.14.19-3.88.18-4.7,0-.21-.35-.13-.75-.13-1.13,0-2.66-.03-5.33.01-7.99.01-.86-.23-1.58-.68-2.29-2.12-3.36-4.22-6.75-6.32-10.12-.18-.29-.34-.6-.52-.91.78-.25,3.76-.31,5.52-.13.56.84,1.03,1.8,1.54,2.73.52.97,1.07,1.93,1.56,2.91.47.94.88,1.9,1.33,2.9.11-.12.2-.19.23-.27.66-1.97,1.8-3.7,2.74-5.53.39-.76.81-1.5,1.21-2.25.18-.33.41-.56.82-.56,1.63,0,3.26,0,4.87,0,.2.39-.06.59-.19.81-1.55,2.51-3.11,5.01-4.67,7.51-.69,1.12-1.37,2.24-2.09,3.34-.35.53-.5,1.07-.49,1.7.02,2.7,0,5.4,0,8.1,0,.39-.02.77-.04,1.2Z"/>
          <path class="cls-1" d="M228.77,34.1c-.37-1.92-.43-3.8-.63-5.66-.2-1.84-.35-3.68-.54-5.51-.19-1.86-.34-3.73-.58-5.84-.25.36-.39.49-.46.66-1.22,2.73-2.43,5.46-3.64,8.19-1.21,2.73-2.42,5.46-3.63,8.19-.09.21-.24.4-.42.71-.63-1-.95-2.01-1.39-2.96-.44-.97-.86-1.95-1.28-2.93-.43-.98-.86-1.95-1.29-2.93-.43-.98-.85-1.95-1.28-2.93-.43-.98-.84-1.96-1.28-2.93-.43-.96-.79-1.95-1.39-3.02-.29.59-.2,1.06-.25,1.49-.06.49-.12.99-.18,1.48-.05.46-.1.92-.14,1.38-.04.46-.07.92-.11,1.38-.05.46-.12.92-.17,1.38-.05.49-.1.99-.14,1.49-.04.46-.07.92-.12,1.38-.05.46-.12.92-.17,1.38-.05.46-.08.92-.12,1.38-.04.5-.09.99-.14,1.49-.05.46-.11.92-.17,1.38-.06.45.05.93-.27,1.36-.59.16-1.17.1-1.76.03-.21-.48-.11-.9-.06-1.31.49-3.81.99-7.61,1.48-11.41.43-3.28.85-6.55,1.28-9.83.03-.21.1-.41.19-.77.19.3.33.47.42.67,1.64,3.79,3.26,7.57,4.9,11.36.98,2.29,1.97,4.57,2.96,6.86.11.25.25.48.43.83.7-1.13,1.09-2.27,1.6-3.35.5-1.06.96-2.14,1.44-3.21.49-1.1.99-2.21,1.48-3.31.49-1.1.99-2.21,1.48-3.31.48-1.07.94-2.15,1.43-3.22.5-1.07.9-2.2,1.7-3.18.94,7.56,1.87,15.13,2.8,22.69.02.13-.03.27-.06.44-.61.2-1.2.11-1.93.06Z"/>
          <path class="cls-1" d="M282.38,24.91c-.42-.25-.82-.17-1.21-.17-1.81,0-3.63,0-5.44,0-.35,0-.72.08-1.02-.16q-.15-.79.04-1.61c1.07-.17,2.17-.05,3.26-.07,1.1-.02,2.2-.02,3.31,0,1.09.02,2.19-.08,3.28.06.06.13.14.23.14.32-.07,1.96-.29,3.9-1.14,5.7-1.52,3.21-4.1,5-7.55,5.6-1.81.31-3.62.31-5.4-.12-4.63-1.1-7.38-4.07-8.38-8.66-.48-2.22-.45-4.47.2-6.65,1.18-3.95,3.63-6.77,7.7-7.84,3.41-.89,6.78-.63,9.91,1.16,1.42.81,2.39,1.88,3.04,3.24-.26.6-.85.87-1.37,1.3-.32-.39-.61-.74-.9-1.09-1.71-2-3.87-3.08-6.51-3.14-.88-.02-1.79-.02-2.65.15-3.44.69-5.7,2.82-6.84,6.07-.94,2.66-.98,5.39.15,8.02,1.36,3.17,3.73,5.11,7.18,5.69,1.73.29,3.4.14,5.04-.44,2.6-.92,4.93-3.13,5.24-7,0-.1-.03-.21-.06-.37Z"/>
          <path class="cls-1" d="M258.42,21.8c.06,6.98-4.34,11.55-9.44,12.67-6.02,1.33-12-1.84-14.17-7.51-1.82-4.75-.31-10.09,3.45-13.26,2.24-1.89,4.82-2.8,7.75-2.83,2.1-.02,4.12.31,5.97,1.32,4.21,2.29,6.35,5.85,6.45,9.6ZM236.24,22.86c.03.32.06.64.08.96.25,4.49,4.49,9.89,11.24,9,6.05-.8,9.83-6.56,8.41-12.45-1.26-5.2-6.17-8.56-11.81-7.46-3.91.77-7.9,4.37-7.92,9.95Z"/>
          <path class="cls-1" d="M354.27,10.88c4.03-.02,7.21,1.41,9.67,4.33,1.65,1.96,2.56,4.24,2.68,6.82.09,1.91-.11,3.77-.93,5.51-1.89,3.98-5,6.38-9.37,7.07-3.28.52-6.33-.16-8.99-2.12-3.88-2.86-5.58-6.73-4.88-11.53.77-5.27,4.93-9.3,10.22-9.99.6-.08,1.21-.07,1.6-.08ZM354.45,32.91c5.41.04,9.96-4.36,10.04-10.06.06-4.67-3.45-10.13-10.05-10.15-5.75-.02-10.02,4.6-9.98,10.11.04,6.11,4.87,10.16,9.99,10.1Z"/>
          <path class="cls-1" d="M300.05,10.84c5.29.15,9.1,2.41,11.31,7.07,1.96,4.13,1.23,9.47-2.15,12.98-2.56,2.67-5.7,3.98-9.37,3.87-6.03-.18-10.36-4.36-11.49-9.15-1.7-7.22,3.21-13.48,9.42-14.52.8-.13,1.62-.18,2.27-.25ZM300.16,32.91c5.49.03,10-4.37,10.06-10.03.05-5.1-3.8-10.16-10.02-10.17-5.75-.01-10.01,4.57-10,10.09,0,5.93,4.75,10.18,9.97,10.12Z"/>
          <path class="cls-1" d="M387.5,11.45c.57-.15,1.13-.12,1.75-.02.04.24.1.47.13.71.02.21,0,.43,0,.64,0,6.83,0,13.66,0,20.49,0,.38-.02.77-.02,1.12-.35.17-.46-.06-.58-.21-1.54-1.82-3.07-3.64-4.61-5.46-2.98-3.53-5.97-7.06-8.95-10.59-.59-.7-1.18-1.4-1.84-2.17-.24.38-.17.7-.17.99,0,3.91,0,7.82,0,11.74,0,1.42,0,2.85,0,4.27,0,.35-.03.7-.05,1.07-.61.22-1.15.17-1.69.07-.27-.35-.18-.72-.18-1.07,0-1.88,0-3.77,0-5.65,0-5.16,0-10.31,0-15.47,0-.38.02-.76.03-1.31,1.25,1.25,2.2,2.53,3.24,3.73,1.07,1.23,2.11,2.5,3.17,3.75,1.03,1.22,2.07,2.44,3.11,3.66,1.06,1.25,2.11,2.5,3.17,3.74,1.03,1.21,2.06,2.43,3.07,3.62.32-.08.27-.29.28-.45.02-.36,0-.71,0-1.07,0-4.94,0-9.89,0-14.83,0-.42-.07-.85.13-1.28Z"/>
          <path class="cls-1" d="M330.27,11.45c.62-.17,1.2-.1,1.79-.05.22.42.15.82.15,1.2,0,3.84,0,7.68,0,11.53,0,2.24,0,4.48,0,6.72,0,.39.02.78.03,1.1.35.36.73.27,1.07.27,1.81,0,3.63,0,5.44,0,.38,0,.77.03,1.16.04.23.63.19,1.17.06,1.78-1.07.21-2.14.07-3.19.09-1.1.02-2.21.01-3.31,0-1.06,0-2.12.04-3.19-.04-.06-.21-.13-.34-.13-.47,0-7.26,0-14.51,0-21.77,0-.13.07-.27.11-.42Z"/>
          <path class="cls-1" d="M319.28,32.18c1.19.11,2.43.04,3.67.05,1.24.01,2.48,0,3.71,0,.35.61.22,1.17.16,1.77-.2.05-.4.14-.6.14-2.85,0-5.69,0-8.54,0-.14,0-.28-.04-.49-.06-.05-.22-.12-.45-.15-.68-.03-.25,0-.5,0-.75,0-6.62,0-13.23,0-19.85,0-.42.02-.84.03-1.27.64-.29,1.22-.19,1.81-.11.23.45.16.88.16,1.3,0,6.01,0,12.02,0,18.03,0,.45-.11.93.24,1.42Z"/>
          <path class="cls-1" d="M210.91,45.32v7.72c-.46.35-.86.31-1.35.11-.15-1.19-.05-2.39-.07-3.58-.02-1.17,0-2.35,0-3.52,0-1.2-.02-2.4.02-3.65.29-.05.49-.09.69-.12.57-.09.91.16,1.18.68,1.01,1.88,2.07,3.73,3.11,5.59.12.21.26.42.4.66.41-.22.54-.61.72-.94.83-1.45,1.63-2.92,2.44-4.37.28-.5.57-.98.84-1.46.43-.23.85-.17,1.32-.07.05.18.15.38.15.58.01,3.23,0,6.47,0,9.7,0,.17-.06.34-.09.51-.41.2-.77.2-1.15-.05-.16-.88-.06-1.76-.08-2.65-.02-.85,0-1.71,0-2.56,0-.87.01-1.75-.19-2.66-.13.19-.29.36-.4.56-.86,1.51-1.71,3.03-2.57,4.55-.1.19-.2.38-.32.56-.33.49-.87.48-1.22-.01-.16-.23-.29-.49-.43-.74-.78-1.39-1.56-2.79-2.35-4.18-.14-.24-.3-.46-.45-.69-.08.01-.15.03-.23.04Z"/>
          <path class="cls-1" d="M305.51,50.4c.02-2.65,0-5.31.02-8.03h1.19c.05.2.14.4.14.6,0,3.24,0,6.47,0,9.71,0,.14-.04.28-.06.4-.82.32-1,.3-1.48-.3-1.21-1.49-2.4-3-3.6-4.5-.67-.83-1.33-1.67-2-2.5-.17-.21-.38-.38-.66-.66-.18.64-.09,1.17-.1,1.69-.02.53,0,1.07,0,1.6v1.49c0,.53,0,1.07,0,1.6,0,.53-.02,1.06-.02,1.56-.41.32-.77.26-1.2.13-.04-.21-.1-.41-.1-.61,0-3.2,0-6.4,0-9.6,0-.17.04-.35.06-.52.59-.34,1.02-.17,1.4.31.95,1.2,1.9,2.4,2.85,3.59.91,1.14,1.81,2.28,2.73,3.42.19.24.42.46.63.69.08-.03.15-.05.23-.08Z"/>
          <path class="cls-1" d="M236.14,53.24h-1.19c-.04-.26-.11-.46-.11-.66,0-3.16,0-6.33,0-9.49,0-.21.04-.42.07-.63.59-.34,1.02-.16,1.4.31.93,1.17,1.86,2.34,2.79,3.51.93,1.17,1.85,2.34,2.79,3.51.19.24.42.46.63.69.34-.19.23-.47.23-.69,0-2.06,0-4.12,0-6.19,0-.38.03-.77.04-1.14.41-.21.74-.19,1.15-.06.04.18.12.38.12.58,0,3.23,0,6.47,0,9.7,0,.14-.04.28-.06.41-.81.32-.98.29-1.47-.31-1.21-1.49-2.4-3-3.6-4.49-.64-.81-1.28-1.62-1.93-2.41-.19-.23-.33-.55-.77-.63-.12.68-.04,1.35-.06,2.01-.01.64,0,1.28,0,1.92,0,.68,0,1.35,0,2.03,0,.64-.02,1.27-.03,2.04Z"/>
          <path class="cls-1" d="M174.38,47.15c-.34-.48-.63-.84-.87-1.24-.84-1.4-.28-2.99,1.25-3.57.8-.31,1.6-.3,2.39.02,1.46.58,1.91,2.15.96,3.41-.25.34-.59.61-.9.9-.23.21-.49.4-.73.59.58.83,1.94,2.22,2.66,2.7.6-.59.51-1.43.73-2.16.27-.25.56-.21.92-.02.23,1.17-.29,2.19-.75,3.26.5.77,1.28,1.3,1.84,2.1-1.23.5-1.97-.1-2.65-.95-.27.16-.51.29-.74.44-1.02.7-2.15.9-3.36.74-1.76-.23-2.97-1.65-2.81-3.29.09-.9.57-1.59,1.21-2.19.26-.24.53-.46.85-.74ZM178.26,51.29c-.67-.92-2.52-2.82-3.11-3.18-.23.2-.47.39-.7.61-.15.15-.3.31-.42.48-.74,1.05-.42,2.3.73,2.87,1.17.58,2.53.29,3.51-.78ZM175.49,46.4c.64-.29,1.07-.6,1.42-1,.35-.38.56-.83.37-1.37-.27-.76-1.25-1.1-2.07-.72-.74.34-1.06,1.17-.66,1.87.24.42.59.78.93,1.22Z"/>
          <path class="cls-1" d="M105.6,42.28c.93,0,1.78,0,2.63,0,.68,0,1.35-.02,2.03.01,2.03.09,3.58,2.07,3.2,4.08-.21,1.11-.71,2-1.76,2.52-.09.05-.18.12-.26.18-.02.02-.03.06-.08.15.67,1.32,1.62,2.52,2.33,3.86-.89.42-1.32.32-1.8-.41-.58-.89-1.17-1.78-1.71-2.7-.29-.49-.66-.69-1.22-.65-.67.04-1.33.03-2.06.04-.23,1.3,0,2.55-.15,3.74-.59.23-.59.23-1.18.02-.03-.11-.08-.25-.09-.38,0-3.3,0-6.61,0-9.91,0-.13.06-.27.12-.55ZM107,48.03c1.14.05,2.31.06,3.48,0,.41-.02.75-.24,1-.56.6-.74.8-1.58.46-2.5-.39-1.06-1.17-1.5-2.01-1.45-.53.03-1.07,0-1.6,0-.46.01-.92-.09-1.36.11-.25.87-.25,3.48.02,4.39Z"/>
          <path class="cls-1" d="M285.25,47.77c.02-1.64.62-3.03,1.78-4.19,1.71-1.71,4.91-1.99,6.91.08,2.34,2.42,2.27,6.22-.25,8.46-2.11,1.87-5.35,1.6-7.11-.6-.87-1.09-1.33-2.33-1.33-3.74ZM294.24,47.87c-.05-1.36-.45-2.53-1.43-3.47-1.26-1.22-3.51-1.17-4.75.04-1.78,1.73-1.84,4.91-.08,6.65,1.24,1.22,3.07,1.38,4.48.36,1.22-.88,1.69-2.15,1.78-3.57Z"/>
          <path class="cls-1" d="M328.03,53.37c-1.85,0-3.04-.52-3.98-1.52-2.45-2.61-2.04-6.48.46-8.53,2.16-1.77,5.29-1.4,7.01.81,1.94,2.49,1.66,5.94-.64,7.98-.94.83-2.05,1.25-2.85,1.26ZM323.86,47.83c-.03,1.07.3,2.02.95,2.87,1.39,1.82,3.98,1.89,5.47.16,1.32-1.54,1.48-3.98.37-5.67-1.52-2.31-4.71-2.24-6.12.1-.47.78-.71,1.62-.67,2.55Z"/>
          <path class="cls-1" d="M202.28,42.24c1.91-.08,3.23.81,4.24,2.21,1.49,2.08,1.36,5.08-.27,7.06-1.93,2.35-5.3,2.48-7.45.32-2.15-2.16-2.23-6.42.51-8.55.9-.7,1.9-1.11,2.97-1.05ZM198.58,47.55c-.01,1.36.43,2.54,1.17,3.34,1.67,1.81,4.33,1.57,5.65-.5.47-.74.73-1.55.75-2.42.03-1.54-.48-2.84-1.73-3.83-1.02-.81-2.97-.79-3.92-.12-1.32.93-1.79,2.24-1.91,3.53Z"/>
          <path class="cls-1" d="M152.35,44.57c-.08.08-.16.2-.27.28-.17.13-.35.23-.59.37-.2-.21-.4-.4-.59-.6-1.58-1.69-4.08-1.56-5.47.3-1.18,1.58-1.38,4.29.4,6.07,1.23,1.23,2.9,1.45,4.39.57.18-.11.35-.24.53-.36.82-.55,1.03-1.29.7-2.29-.7-.04-1.39-.08-2.13-.13-.02-.31-.04-.54-.05-.76.73-.28,2.3-.32,3.37-.1.21.74.25,4.05.05,5.18-.31.25-.64.23-1.01,0-.05-.32-.1-.66-.17-1.09-.23.15-.4.25-.56.37-1.8,1.41-4.05,1.25-5.78-.22-2.2-1.86-2.88-5.28-.87-7.99,1.1-1.49,2.63-2.07,4.48-1.96,1.38.08,2.45.65,3.28,1.73.09.11.15.24.22.36.03.06.03.13.06.24Z"/>
          <path class="cls-1" d="M77.17,42.4c.18-.04.32-.1.45-.1,2.06,0,4.12,0,6.19,0,.13,0,.27.06.39.08.21.37.22.69-.03,1.1-1.79.15-3.63-.04-5.44.1-.29.8-.31,2.27-.07,3.36.24.03.51.1.79.11,1,.01,1.99,0,2.99,0,.21,0,.43,0,.64.02.44.04.54.15.56.61,0,.14-.04.27-.07.46-.25.04-.49.1-.73.1-1.03.01-2.06,0-3.09,0-.35,0-.7.03-1.02.05-.28.8-.31,2.58-.08,3.65.59.27,1.24.11,1.87.14.64.02,1.28,0,1.92,0,.64,0,1.27.02,1.88.03.29.38.25.7.08,1.08-.16.04-.33.11-.5.11-2.1,0-4.2,0-6.29-.01-.13,0-.26-.08-.38-.12-.17-.8-.22-9.37-.05-10.77Z"/>
          <path class="cls-1" d="M136.19,43.58c-.21,1.06-.21,2.42,0,3.37.24.03.51.1.78.11.92.01,1.85,0,2.77,0,.25,0,.5,0,.75,0,.75.04.81.14.65,1.09-.22.03-.46.08-.69.09-1.07.01-2.13,0-3.2,0-.35,0-.7.02-1.02.04-.27.91-.27,2.76,0,3.71.28.03.58.08.89.08,1.28,0,2.56,0,3.84,0,.35,0,.7.03,1.12.05.02.37.04.66.06,1-.27.07-.47.17-.67.17-2.06.01-4.12,0-6.19,0-.14,0-.27-.05-.46-.09-.04-.17-.12-.33-.12-.5,0-3.27,0-6.54,0-9.81,0-.14.04-.28.07-.46.16-.05.32-.15.48-.15,2.06-.01,4.12,0,6.19,0,.13,0,.27.05.4.08.21.37.17.7,0,1.11-1.87.13-3.75-.03-5.66.1Z"/>
          <path class="cls-1" d="M314.92,49.39c-.03,1.31-.05,2.51-.07,3.68-.45.31-.85.27-1.31.08-.03-.28-.08-.56-.08-.83-.11-4.92-.05-8.96.13-9.94.21-.03.45-.09.68-.1,1.21-.01,2.41-.02,3.62,0,2.48.04,4.11,2.44,3.27,4.79-.53,1.46-1.59,2.22-3.14,2.25-.67.01-1.35,0-2.02,0-.31,0-.63.04-1.08.07ZM315.06,48.05c1.11,0,2.17.02,3.23,0,.53-.01.94-.31,1.23-.74.34-.48.5-1.04.47-1.61-.08-1.33-1.05-2.25-2.15-2.17-.71.05-1.42,0-2.13.01-.24,0-.47.08-.68.11-.19,1-.18,3.42.04,4.4Z"/>
          <path class="cls-1" d="M93.52,43.47c-.12.25-.21.44-.31.63-.06.13-.13.25-.19.38-.42-.23-.7-.4-.98-.53-1.02-.5-2.09-.68-3.21-.38-.87.23-1.34.83-1.34,1.68,0,.6.25,1.04.79,1.27.42.18.86.33,1.3.46.65.19,1.31.33,1.96.51.34.1.67.24.99.39,1,.46,1.52,1.27,1.56,2.35.03,1.07-.38,1.97-1.32,2.5-.48.27-1.04.48-1.59.57-1.82.28-3.54-.07-5.09-1.09-.14-.09-.26-.23-.43-.39.17-.32.33-.63.53-1,.29.16.54.27.77.41,1.13.69,2.35,1,3.66.88.35-.03.7-.12,1.03-.25.58-.23.89-.7.94-1.31.05-.63-.27-1.09-.81-1.39-.31-.17-.64-.31-.98-.41-.58-.18-1.17-.31-1.75-.48-.48-.14-.96-.28-1.41-.47-1.74-.71-1.9-2.29-1.37-3.62.33-.84.97-1.42,1.83-1.66,1.74-.48,3.44-.43,5.01.61.11.08.21.19.39.35Z"/>
          <path class="cls-1" d="M231.03,42.46c.42-.22.76-.21,1.16-.04.03.21.1.45.1.69,0,1.74,0,3.48,0,5.23,0,.79-.17,1.56-.46,2.29-.55,1.43-1.57,2.33-3.1,2.64-.96.19-1.92.16-2.84-.16-1.25-.43-2.11-1.32-2.52-2.57-.22-.67-.4-1.38-.42-2.08-.06-1.88-.02-3.77-.02-5.65,0-.1.04-.21.07-.35.38-.25.78-.19,1.17-.08.26.34.17.71.17,1.06,0,1.56,0,3.13,0,4.69,0,.65.07,1.28.29,1.89.81,2.28,3.11,2.44,4.45,1.77,1.02-.5,1.47-1.42,1.67-2.47.13-.69.17-1.41.19-2.12.03-1.24,0-2.49.01-3.73,0-.35.04-.69.07-1Z"/>
          <path class="cls-1" d="M160.58,50.14c-.13.31-.29.66-.44,1.02-.18.43-.34.86-.52,1.28-.4.95-.48.99-1.68.71.2-.98.69-1.84,1.04-2.76.34-.9.73-1.77,1.09-2.66.38-.92.73-1.85,1.13-2.76.38-.87.65-1.8,1.18-2.65h1.11c1.52,3.56,2.94,7.15,4.42,10.75-.39.32-.79.26-1.15.17-.17-.04-.34-.25-.42-.42-.25-.55-.46-1.11-.69-1.67-.09-.23-.19-.46-.29-.69-.11-.24-.29-.39-.56-.44-.41-.07-3.59,0-4.22.11ZM164.71,48.83c-.16-.75-1.23-3.61-1.65-4.42-.02-.05-.12-.06-.24-.11-.12.24-.27.47-.36.72-.48,1.25-1.07,2.46-1.45,3.75.82.23,2.55.26,3.71.07Z"/>
          <path class="cls-1" d="M370.86,53.16c.05-.24.06-.41.12-.57,1.41-3.41,2.76-6.84,4.23-10.25h1.07c.45.67,3.97,9.13,4.46,10.71-.76.46-1.26.33-1.59-.41-.27-.62-.51-1.25-.78-1.87-.1-.23-.22-.44-.36-.71-.5-.02-.99-.04-1.48-.05-.78,0-1.56.01-2.34,0-.49,0-.8.19-.97.66-.23.63-.49,1.26-.75,1.88-.31.75-.38.79-1.19.75-.1,0-.2-.06-.42-.13ZM377.71,48.79c-.51-1.31-.98-2.53-1.46-3.74-.09-.23-.21-.45-.32-.67-.01-.03-.05-.05-.08-.06-.03,0-.07,0-.1,0-.55.9-1.66,3.73-1.76,4.49.85.18,2.69.19,3.72-.03Z"/>
          <path class="cls-1" d="M119.06,42.35c.19-.02.36-.06.54-.06.17,0,.35.03.6.06,1.5,3.54,2.93,7.13,4.41,10.73-.4.32-.79.25-1.16.17-.31-.07-.41-.37-.52-.63-.22-.53-.42-1.06-.64-1.58-.14-.32-.3-.63-.42-.9-1.17-.19-3.73-.16-4.6.05-.16.38-.35.8-.53,1.22-.14.33-.27.66-.4.99-.4.99-.49,1.03-1.65.77.02-.16,0-.34.06-.49,1.37-3.35,2.75-6.7,4.13-10.05.03-.06.08-.12.18-.28ZM119.62,44.14c-.58.96-1.73,3.9-1.86,4.67.96.23,2.91.2,3.61-.05-.15-.78-1.13-3.38-1.76-4.62Z"/>
          <path class="cls-1" d="M264.66,42.33c.22-.02.4-.04.57-.04.14,0,.28.03.5.06.83,1.73,1.51,3.55,2.25,5.35.73,1.77,1.44,3.54,2.16,5.3-.86.53-1.29.42-1.63-.38-.28-.65-.54-1.31-.8-1.97-.16-.41-.43-.63-.88-.63-1.14,0-2.27,0-3.41,0-.42,0-.65.21-.8.58-.26.66-.52,1.32-.79,1.98-.34.8-.63.9-1.59.56.17-.8,3.81-9.72,4.41-10.79ZM265.12,44.28c-.75,1.31-1.7,3.86-1.72,4.63,1.19.06,2.38.09,3.61-.02-.04-.23-.04-.37-.09-.5-.52-1.32-1.04-2.64-1.57-3.96-.02-.05-.11-.07-.24-.16Z"/>
          <path class="cls-1" d="M259.39,44.6c-.36.24-.64.43-.97.65-.23-.25-.43-.45-.6-.66-1.11-1.39-3.59-1.38-4.83-.29-2.19,1.9-1.93,5.78.53,7.31,1.33.84,3.08.65,4.23-.46.25-.25.47-.53.75-.84.17.06.36.12.54.21.15.08.29.19.47.31-.02.44-.29.72-.55,1.01-1.37,1.48-3.77,2-5.6,1.14-2.14-1.01-3.2-2.84-3.27-5.12-.07-2.16.85-3.94,2.81-5.04,1.6-.9,4.69-.94,6.16,1.21.1.14.17.31.33.59Z"/>
          <path class="cls-1" d="M279.11,50.22c.36.23.66.41,1,.63-.14.27-.22.5-.37.69-1.74,2.19-5.01,2.46-7.14.6-2.42-2.12-2.53-5.92-.68-8.11.92-1.08,2.06-1.74,3.51-1.77.43-.01.86-.02,1.28.03,1.44.18,2.47.94,3.2,2.28-.32.23-.6.44-.92.67-.18-.18-.35-.3-.46-.47-1.1-1.64-3.94-1.69-5.28-.23-1.74,1.91-1.7,5.18.58,6.91,1.32,1,3.19.87,4.41-.28.28-.27.52-.57.86-.95Z"/>
          <path class="cls-1" d="M369.06,45.26c-.18-.19-.28-.29-.37-.4-1.8-2.19-5.05-1.71-6.15.9-.79,1.88-.45,3.9.88,5.24,1.51,1.52,3.74,1.48,5.19-.11.17-.18.31-.38.48-.6.42.02.72.26,1.05.54-.03.42-.3.7-.56.98-1.52,1.63-4.01,2.03-5.96.95-3.14-1.73-4.01-6.4-1.21-9.14,1.56-1.53,3.45-1.72,5.44-1.07.96.32,1.68,1.01,2.15,2.02-.31.22-.59.42-.94.68Z"/>
          <path class="cls-1" d="M195.15,50.29c.42.1.75.27.99.58-.04.46-.34.73-.61,1-1.82,1.87-4.79,2-6.78.3-2.48-2.12-2.61-5.96-.71-8.18.92-1.08,2.07-1.72,3.52-1.75.32,0,.64,0,.96,0,1.56.08,2.65.87,3.45,2.17-.18.44-.54.58-.93.77-.14-.15-.3-.28-.42-.45-1.09-1.6-3.88-1.66-5.2-.27-1.77,1.86-1.82,5.21.54,6.98,1.4,1.05,3.43.82,4.65-.51.19-.2.36-.43.55-.66Z"/>
          <path class="cls-1" d="M103.89,42.37c-.02.4-.04.7-.06,1.04-1.21.28-2.4-.02-3.53.2-.31.36-.21.76-.21,1.14,0,2.42,0,4.83,0,7.25,0,.38.05.78-.1,1.13-.4.27-.77.19-1.16.08-.24-.38-.16-.78-.16-1.16,0-2.38,0-4.76,0-7.14,0-.39-.02-.77-.03-1.16-.61-.38-1.22-.18-1.81-.22-.6-.04-1.2-.02-1.75-.03-.31-.39-.26-.72-.11-1.12.96-.23,1.95-.08,2.93-.11.96-.03,1.92-.02,2.88,0,.99.02,1.98-.07,3.12.09Z"/>
          <path class="cls-1" d="M124.13,43.48v-1.07c.98-.24,1.94-.1,2.89-.12.99-.02,1.99-.01,2.99,0,.95.01,1.91-.06,2.83.05q.16.55.05,1.1c-1.09.27-2.24-.05-3.34.18-.32.35-.22.76-.22,1.13,0,2.42,0,4.83,0,7.25,0,.38-.03.76-.05,1.13-.49.26-.88.21-1.34.02-.09-1.05-.03-2.08-.04-3.1,0-1.07,0-2.13,0-3.2s0-2.05,0-3.13c-.3-.07-.53-.16-.76-.16-.64-.02-1.28,0-1.92-.01-.32,0-.63-.03-1.07-.05Z"/>
          <path class="cls-1" d="M350.54,43.54h-3.5c-.24-.53-.25-.53-.16-1.13.18-.04.37-.13.57-.13,2.52,0,5.05,0,7.57,0,.17,0,.35.04.52.06.27.34.24.67.06,1.08-1.1.28-2.29-.07-3.43.2-.2.41-.14.81-.14,1.19,0,2.38,0,4.76,0,7.14,0,.38-.02.77-.04,1.13-.47.31-.87.24-1.35.08-.02-.4-.05-.79-.05-1.17,0-2.38,0-4.76,0-7.14,0-.38-.03-.77-.06-1.31Z"/>
          <path class="cls-1" d="M336.35,52.02c1.89.16,3.84-.05,5.84.12.02.37.04.67.06.95-.16.08-.25.16-.34.17-.28.03-.57.04-.85.04-1.7,0-3.41,0-5.11,0-.35,0-.69-.04-1.07-.06-.04-.32-.09-.56-.1-.8-.11-3.93-.05-9.07.11-10.03.31-.21.65-.15,1-.07.32.32.22.73.22,1.11.01,2.45,0,4.9,0,7.35,0,.38-.06.78.23,1.21Z"/>
          <path class="cls-1" d="M283.21,53.14c-.39.2-.76.21-1.2.02-.04-.22-.11-.45-.11-.69,0-3.13,0-6.25,0-9.38,0-.24.07-.48.11-.71.43-.14.8-.15,1.21.01.03.15.09.28.09.42,0,3.3,0,6.61,0,9.91,0,.13-.06.27-.09.41Z"/>
          <path class="cls-1" d="M345.12,53.12q-.58.21-1.21.04c-.03-.13-.11-.3-.11-.46,0-3.27,0-6.54,0-9.81,0-.14.04-.27.07-.45.41-.21.8-.19,1.24-.03.03.15.09.28.09.42,0,3.31,0,6.61,0,9.92,0,.13-.06.27-.09.38Z"/>
          <path class="cls-1" d="M357.56,42.33h1.03c.06.23.15.43.15.63,0,3.23,0,6.46,0,9.69,0,.17-.06.34-.09.5-.41.21-.77.22-1.13.01-.17-.99-.15-9.89.04-10.82Z"/>
          <path class="cls-1" d="M156.21,53.13c-.37.26-.71.17-1.12.09-.04-.24-.11-.48-.12-.71,0-3.12,0-6.24,0-9.36,0-.24.05-.48.08-.69.38-.25.72-.16,1.11-.1.04.21.12.42.12.62,0,3.23,0,6.45,0,9.68,0,.17-.05.34-.08.48Z"/>
          <path class="cls-1" d="M248.04,53.13q-.57.21-1.14.02c-.03-.09-.09-.19-.09-.28-.01-3.3-.02-6.6-.02-9.9,0-.17.05-.34.07-.5.36-.26.7-.19,1.1-.1.05.18.14.37.14.57,0,3.26,0,6.53,0,9.79,0,.14-.05.27-.08.39Z"/>
          <path class="cls-1" d="M344.75,40.88c-.25-.08-.47-.15-.71-.22-.02-.55.33-.89.55-1.26.31-.52.81-.24,1.36-.37-.25.83-.76,1.29-1.19,1.85Z"/>
          <path class="cls-1" d="M291.91,39.29c-.39.53-.78,1.05-1.19,1.6-.28-.1-.5-.17-.73-.25,0-.54.32-.9.57-1.27.33-.49.82-.22,1.23-.31.04.07.08.15.12.22Z"/>
        </g>
      </g>
    </g>
  </g>
</svg>